<svg xmlns="http://www.w3.org/2000/svg" xmlns:xlink="http://www.w3.org/1999/xlink" xmlns:lucid="lucid" width="969.52" height="561"><g transform="translate(361 141)" lucid:page-tab-id="0_0"><path d="M-500-500h1500V500H-500z" fill="#fff"/><path d="M-26.24-140h300V79h-300z" stroke="#333" stroke-width="2" fill="#fff"/><path d="M-26.24-102.4h300m-300 101.3h300" stroke="#333" stroke-width="2" fill="none"/><use xlink:href="#a" transform="matrix(1,0,0,1,-18.2402827412825,-132) translate(123.55 14.6)"/><use xlink:href="#b" transform="matrix(1,0,0,1,-14.240282741282499,-94.4) translate(0 25)"/><use xlink:href="#c" transform="matrix(1,0,0,1,-14.240282741282499,-94.4) translate(10.95 25)"/><use xlink:href="#d" transform="matrix(1,0,0,1,-14.240282741282499,-94.4) translate(58.80000000000001 25)"/><use xlink:href="#b" transform="matrix(1,0,0,1,-14.240282741282499,-94.4) translate(0 46.6)"/><use xlink:href="#e" transform="matrix(1,0,0,1,-14.240282741282499,-94.4) translate(10.95 46.6)"/><use xlink:href="#f" transform="matrix(1,0,0,1,-14.240282741282499,-94.4) translate(79.95 46.6)"/><use xlink:href="#b" transform="matrix(1,0,0,1,-14.240282741282499,-94.4) translate(0 68.2)"/><use xlink:href="#g" transform="matrix(1,0,0,1,-14.240282741282499,-94.4) translate(10.95 68.2)"/><use xlink:href="#h" transform="matrix(1,0,0,1,-14.240282741282499,-94.4) translate(76.9 68.2)"/><use xlink:href="#i" transform="matrix(1,0,0,1,-14.240282741282499,6.8999999999999915) translate(0 24.799999999999997)"/><use xlink:href="#j" transform="matrix(1,0,0,1,-14.240282741282499,6.8999999999999915) translate(15.5 24.799999999999997)"/><use xlink:href="#i" transform="matrix(1,0,0,1,-14.240282741282499,6.8999999999999915) translate(0 46.4)"/><use xlink:href="#k" transform="matrix(1,0,0,1,-14.240282741282499,6.8999999999999915) translate(15.5 46.4)"/><use xlink:href="#l" transform="matrix(1,0,0,1,-14.240282741282499,6.8999999999999915) translate(195.99999999999997 46.4)"/><path d="M-26.24 240h300v179h-300z" stroke="#333" stroke-width="2" fill="#fff"/><path d="M-26.24 277.6h300" stroke="#333" stroke-width="2" fill="none"/><use xlink:href="#m" transform="matrix(1,0,0,1,-18.2402827412825,248) translate(106.6 14.6)"/><use xlink:href="#n" transform="matrix(1,0,0,1,-14.240282741282499,285.6) translate(0 69.089501953125)"/><use xlink:href="#o" transform="matrix(1,0,0,1,-14.240282741282499,285.6) translate(15.783662109375003 69.089501953125)"/><use xlink:href="#p" transform="matrix(1,0,0,1,-14.240282741282499,285.6) translate(205.23665039062502 69.089501953125)"/><path d="M124.23 238.5h-.95v-4.78h.95zm0-9.55h-.95v-9.55h.95zm0-14.33h-.95v-9.55h.95zm0-14.32h-.95v-9.56h.95zm0-14.33h-.95v-9.55h.95zm0-14.33h-.95v-9.55h.95zm0-29.18h-.95v-9.02h.95zm0-13.8h-.95v-9.55h.95zm0-14.32h-.95v-9.55h.95zm0-14.33h-.95v-9.54h.95zm0-14.3l-.95-.02v-4.77h.95z" stroke="#333" stroke-width=".05" fill="#333"/><path d="M134.17 98.08l-.82.48-9.6-16.6-9.58 16.6-.82-.48 10.4-18.03z" stroke="#333" stroke-width=".05" fill="#333"/><path d="M124.23 239h-.95v-.5h.95z" fill="#333"/><path stroke="#333" stroke-width=".05" fill="#333"/><use xlink:href="#q" transform="matrix(1,0,0,1,101.67795799945824,142.4610222473205) translate(0 11.573333333333336)"/><path d="M-204.9 237.1l-4.44 2.1-.4-.84 4.42-2.12zm13.3-6.33l-8.88 4.22-.4-.87 8.86-4.22zm13.3-6.34l-8.88 4.22-.4-.85 8.86-4.23zm13.3-6.34l-8.88 4.22-.4-.86 8.86-4.22zm13.3-6.34l-8.88 4.22-.4-.85 8.86-4.23zm13.3-6.34l-8.88 4.23-.4-.86 8.86-4.24zm13.3-6.33l-8.88 4.2-.4-.85 8.86-4.22zm13.28-6.35l-8.86 4.22-.4-.85 8.86-4.23zm13.3-6.33l-8.86 4.22-.4-.86 8.86-4.22zm13.3-6.34l-8.86 4.22-.4-.85 8.86-4.23zm13.3-6.34l-8.86 4.23-.4-.86 8.86-4.2zm13.3-6.33l-8.86 4.23-.4-.85 8.85-4.23zm13.3-6.33l-8.86 4.23-.4-.86 8.85-4.22zm39.9-19l-1.2.58h-2.22l3-1.44zm13.3-6.34l-8.86 4.22-.4-.85 8.85-4.23zm13.3-6.34l-8.87 4.22-.4-.86 8.87-4.22zm13.3-6.34l-8.87 4.22-.4-.86 8.87-4.22zm13.3-6.34l-8.87 4.23-.4-.86 8.87-4.23zm13.3-6.33l-8.87 4.2-.4-.85 8.87-4.22zm13.3-6.35l-8.87 4.23-.4-.86 8.87-4.23zm13.3-6.33l-8.87 4.22-.4-.86 8.87-4.22zm13.3-6.34L92.1 95.6l-.4-.85 8.87-4.23zm13.3-6.34l-8.87 4.23-.4-.86 8.87-4.2zm8.86-4.22l-4.43 2.1-.4-.85 4.44-2.1z" stroke="#333" stroke-width=".05" fill="#333"/><path d="M123.72 80.02l-11.8 17.16-.8-.54L122 80.84l-19.12-1.52.08-.94z" stroke="#333" stroke-width=".05" fill="#333"/><path d="M-209.43 239h-1.67l1.36-.65z" fill="#333"/><path stroke="#333" stroke-width=".05" fill="#333"/><use xlink:href="#q" transform="matrix(1,0,0,1,-48.04064524694661,142.64453883799723) translate(0 11.573333333333336)"/><use xlink:href="#r" transform="matrix(1,0,0,1,28.048593783408165,79.37790147437524) translate(0 14.4)"/><use xlink:href="#r" transform="matrix(1,0,0,1,-164.31991906159277,218.00568439601523) translate(0 14.4)"/><path d="M-360 240h300v179h-300z" stroke="#333" stroke-width="2" fill="#fff"/><path d="M-360 277.6h300" stroke="#333" stroke-width="2" fill="none"/><g><use xlink:href="#s" transform="matrix(1,0,0,1,-352,248) translate(108.57499999999999 14.6)"/></g><g><use xlink:href="#n" transform="matrix(1,0,0,1,-348,285.6) translate(0 69.089501953125)"/><use xlink:href="#t" transform="matrix(1,0,0,1,-348,285.6) translate(15.783662109375003 69.089501953125)"/><use xlink:href="#p" transform="matrix(1,0,0,1,-348,285.6) translate(202.58015625 69.089501953125)"/></g><path d="M307.52 240h300v179h-300z" stroke="#333" stroke-width="2" fill="#fff"/><path d="M307.52 277.6h300" stroke="#333" stroke-width="2" fill="none"/><g><use xlink:href="#u" transform="matrix(1,0,0,1,315.519434517435,248) translate(69.625 14.6)"/></g><g><use xlink:href="#n" transform="matrix(1,0,0,1,319.519434517435,285.6) translate(0 69.089501953125)"/><use xlink:href="#v" transform="matrix(1,0,0,1,319.519434517435,285.6) translate(15.783662109375003 69.089501953125)"/><use xlink:href="#p" transform="matrix(1,0,0,1,319.519434517435,285.6) translate(164.65359375000003 69.089501953125)"/></g><path d="M457.27 238.36l-.4.85-4.44-2.1.4-.86zm-8.86-4.23l-.4.86-8.87-4.23.4-.86zm-13.3-6.33l-.4.85-8.87-4.22.4-.86zm-13.3-6.34l-.4.86-8.87-4.22.4-.86zm-13.3-6.34l-.4.86-8.87-4.22.4-.86zm-13.3-6.33l-.4.85-8.87-4.23.4-.85zm-13.3-6.35l-.4.86-8.87-4.2.4-.87zm-13.3-6.33l-.4.85-8.87-4.22.4-.86zm-13.3-6.34l-.4.86-8.86-4.22.4-.86zm-13.3-6.33l-.4.85-8.87-4.22.4-.86zm-13.3-6.34l-.4.87-8.86-4.23.4-.85zm-13.3-6.32l-.4.85-8.86-4.22.4-.85zm-13.3-6.34l-.4.86-8.86-4.23.4-.85zm-45.74-21.8h-2.2l-1.22-.57.4-.86zm-7.45-3.54l-.4.85-8.86-4.22.4-.86zm-13.3-6.34l-.4.86-8.86-4.23.4-.86zm-13.3-6.34l-.4.86-8.86-4.22.4-.86zM209 120.1l-.4.85-8.86-4.23.4-.86zm-13.28-6.35l-.4.86-8.88-4.2.4-.87zm-13.3-6.33l-.4.86-8.88-4.23.4-.86zm-13.3-6.34l-.4.86-8.88-4.22.4-.86zm-13.3-6.33l-.4.85-8.88-4.22.4-.86zm-13.3-6.34l-.4.87-8.88-4.23.4-.85zm-13.3-6.33l-.4.86-4.44-2.1.4-.87z" stroke="#333" stroke-width=".05" fill="#333"/><path d="M144.64 79.33l-19.12 1.5 10.87 15.8-.8.55-11.8-17.16 20.76-1.64z" stroke="#333" stroke-width=".05" fill="#333"/><path d="M458.62 239h-1.67l.3-.65z" fill="#333"/><path stroke="#333" stroke-width=".05" fill="#333"/><g><use xlink:href="#q" transform="matrix(1,0,0,1,251.39656124586313,142.64453883799723) translate(0 11.573333333333336)"/></g><g><use xlink:href="#r" transform="matrix(1,0,0,1,93.9522906286934,90.4180017953944) translate(0 14.4)"/></g><g><use xlink:href="#r" transform="matrix(1,0,0,1,456.25441633317246,216.03011053510738) translate(0 14.4)"/></g><defs><path fill="#333" d="M24 0v-248h52v208h133V0H24" id="w"/><path fill="#333" d="M110-194c64 0 96 36 96 99 0 64-35 99-97 99-61 0-95-36-95-99 0-62 34-99 96-99zm-1 164c35 0 45-28 45-65 0-40-10-65-43-65-34 0-45 26-45 65 0 36 10 65 43 65" id="x"/><path fill="#333" d="M25-224v-37h50v37H25zM75 22c2 45-34 59-81 51V38c22 5 31-5 31-27v-201h50V22" id="y"/><path fill="#333" d="M133-34C117-15 103 5 69 4 32 3 11-16 11-54c-1-60 55-63 116-61 1-26-3-47-28-47-18 1-26 9-28 27l-52-2c7-38 36-58 82-57s74 22 75 68l1 82c-1 14 12 18 25 15v27c-30 8-71 5-69-32zm-48 3c29 0 43-24 42-57-32 0-66-3-65 30 0 17 8 27 23 27" id="z"/><g id="a"><use transform="matrix(0.05,0,0,0.05,0,0)" xlink:href="#w"/><use transform="matrix(0.05,0,0,0.05,10.950000000000001,0)" xlink:href="#x"/><use transform="matrix(0.05,0,0,0.05,21.900000000000002,0)" xlink:href="#y"/><use transform="matrix(0.05,0,0,0.05,26.900000000000002,0)" xlink:href="#z"/></g><path fill="#333" d="M16-82v-28h88v28H16" id="A"/><use transform="matrix(0.05,0,0,0.05,0,0)" xlink:href="#A" id="b"/><path fill="#333" d="M100-194c63 0 86 42 84 106H49c0 40 14 67 53 68 26 1 43-12 49-29l28 8c-11 28-37 45-77 45C44 4 14-33 15-96c1-61 26-98 85-98zm52 81c6-60-76-77-97-28-3 7-6 17-6 28h103" id="B"/><path fill="#333" d="M210-169c-67 3-38 105-44 169h-31v-121c0-29-5-50-35-48C34-165 62-65 56 0H25l-1-190h30c1 10-1 24 2 32 10-44 99-50 107 0 11-21 27-35 58-36 85-2 47 119 55 194h-31v-121c0-29-5-49-35-48" id="C"/><path fill="#333" d="M141-36C126-15 110 5 73 4 37 3 15-17 15-53c-1-64 63-63 125-63 3-35-9-54-41-54-24 1-41 7-42 31l-33-3c5-37 33-52 76-52 45 0 72 20 72 64v82c-1 20 7 32 28 27v20c-31 9-61-2-59-35zM48-53c0 20 12 33 32 33 41-3 63-29 60-74-43 2-92-5-92 41" id="D"/><path fill="#333" d="M24-231v-30h32v30H24zM24 0v-190h32V0H24" id="E"/><path fill="#333" d="M24 0v-261h32V0H24" id="F"/><g id="c"><use transform="matrix(0.05,0,0,0.05,0,0)" xlink:href="#B"/><use transform="matrix(0.05,0,0,0.05,10,0)" xlink:href="#C"/><use transform="matrix(0.05,0,0,0.05,24.950000000000003,0)" xlink:href="#D"/><use transform="matrix(0.05,0,0,0.05,34.95,0)" xlink:href="#E"/><use transform="matrix(0.05,0,0,0.05,38.900000000000006,0)" xlink:href="#F"/></g><path fill="#333" d="M30 0v-248h187v28H63v79h144v27H63v87h162V0H30" id="G"/><path fill="#333" d="M190 0L58-211 59 0H30v-248h39L202-35l-2-213h31V0h-41" id="H"/><path fill="#333" d="M100-194c62-1 85 37 85 99 1 63-27 99-86 99S16-35 15-95c0-66 28-99 85-99zM99-20c44 1 53-31 53-75 0-43-8-75-51-75s-53 32-53 75 10 74 51 75" id="I"/><path fill="#333" d="M59-47c-2 24 18 29 38 22v24C64 9 27 4 27-40v-127H5v-23h24l9-43h21v43h35v23H59v120" id="J"/><path fill="#333" d="M101-234c-31-9-42 10-38 44h38v23H63V0H32v-167H5v-23h27c-7-52 17-82 69-68v24" id="K"/><path fill="#333" d="M96-169c-40 0-48 33-48 73s9 75 48 75c24 0 41-14 43-38l32 2c-6 37-31 61-74 61-59 0-76-41-82-99-10-93 101-131 147-64 4 7 5 14 7 22l-32 3c-4-21-16-35-41-35" id="L"/><g id="d"><use transform="matrix(0.05,0,0,0.05,0,0)" xlink:href="#G"/><use transform="matrix(0.05,0,0,0.05,12,0)" xlink:href="#C"/><use transform="matrix(0.05,0,0,0.05,26.950000000000003,0)" xlink:href="#D"/><use transform="matrix(0.05,0,0,0.05,36.95,0)" xlink:href="#E"/><use transform="matrix(0.05,0,0,0.05,40.900000000000006,0)" xlink:href="#F"/><use transform="matrix(0.05,0,0,0.05,44.85000000000001,0)" xlink:href="#H"/><use transform="matrix(0.05,0,0,0.05,57.80000000000001,0)" xlink:href="#I"/><use transform="matrix(0.05,0,0,0.05,67.80000000000001,0)" xlink:href="#J"/><use transform="matrix(0.05,0,0,0.05,72.80000000000001,0)" xlink:href="#E"/><use transform="matrix(0.05,0,0,0.05,76.75000000000001,0)" xlink:href="#K"/><use transform="matrix(0.05,0,0,0.05,81.75000000000001,0)" xlink:href="#E"/><use transform="matrix(0.05,0,0,0.05,85.70000000000002,0)" xlink:href="#L"/><use transform="matrix(0.05,0,0,0.05,94.70000000000002,0)" xlink:href="#D"/><use transform="matrix(0.05,0,0,0.05,104.7,0)" xlink:href="#L"/><use transform="matrix(0.05,0,0,0.05,113.7,0)" xlink:href="#D"/><use transform="matrix(0.05,0,0,0.05,123.7,0)" xlink:href="#I"/></g><path fill="#333" d="M135-143c-3-34-86-38-87 0 15 53 115 12 119 90S17 21 10-45l28-5c4 36 97 45 98 0-10-56-113-15-118-90-4-57 82-63 122-42 12 7 21 19 24 35" id="M"/><path fill="#333" d="M145-31C134-9 116 4 85 4 32 4 16-35 15-94c0-59 17-99 70-100 32-1 48 14 60 33 0-11-1-24 2-32h30l-1 268h-32zM93-21c41 0 51-33 51-76s-8-73-50-73c-40 0-46 35-46 75s5 74 45 74" id="N"/><path fill="#333" d="M84 4C-5 8 30-112 23-190h32v120c0 31 7 50 39 49 72-2 45-101 50-169h31l1 190h-30c-1-10 1-25-2-33-11 22-28 36-60 37" id="O"/><g id="e"><use transform="matrix(0.05,0,0,0.05,0,0)" xlink:href="#B"/><use transform="matrix(0.05,0,0,0.05,10,0)" xlink:href="#M"/><use transform="matrix(0.05,0,0,0.05,19,0)" xlink:href="#J"/><use transform="matrix(0.05,0,0,0.05,24,0)" xlink:href="#I"/><use transform="matrix(0.05,0,0,0.05,34,0)" xlink:href="#N"/><use transform="matrix(0.05,0,0,0.05,44,0)" xlink:href="#O"/><use transform="matrix(0.05,0,0,0.05,54,0)" xlink:href="#B"/></g><g id="f"><use transform="matrix(0.05,0,0,0.05,0,0)" xlink:href="#G"/><use transform="matrix(0.05,0,0,0.05,12,0)" xlink:href="#M"/><use transform="matrix(0.05,0,0,0.05,21,0)" xlink:href="#J"/><use transform="matrix(0.05,0,0,0.05,26,0)" xlink:href="#I"/><use transform="matrix(0.05,0,0,0.05,36,0)" xlink:href="#N"/><use transform="matrix(0.05,0,0,0.05,46,0)" xlink:href="#O"/><use transform="matrix(0.05,0,0,0.05,56,0)" xlink:href="#B"/></g><path fill="#333" d="M117-194c89-4 53 116 60 194h-32v-121c0-31-8-49-39-48C34-167 62-67 57 0H25l-1-190h30c1 10-1 24 2 32 11-22 29-35 61-36" id="P"/><path fill="#333" d="M114-163C36-179 61-72 57 0H25l-1-190h30c1 12-1 29 2 39 6-27 23-49 58-41v29" id="Q"/><path fill="#333" d="M177-190C167-65 218 103 67 71c-23-6-38-20-44-43l32-5c15 47 100 32 89-28v-30C133-14 115 1 83 1 29 1 15-40 15-95c0-56 16-97 71-98 29-1 48 16 59 35 1-10 0-23 2-32h30zM94-22c36 0 50-32 50-73 0-42-14-75-50-75-39 0-46 34-46 75s6 73 46 73" id="R"/><g id="g"><use transform="matrix(0.05,0,0,0.05,0,0)" xlink:href="#B"/><use transform="matrix(0.05,0,0,0.05,10,0)" xlink:href="#P"/><use transform="matrix(0.05,0,0,0.05,20,0)" xlink:href="#J"/><use transform="matrix(0.05,0,0,0.05,25,0)" xlink:href="#Q"/><use transform="matrix(0.05,0,0,0.05,30.950000000000003,0)" xlink:href="#B"/><use transform="matrix(0.05,0,0,0.05,40.95,0)" xlink:href="#R"/><use transform="matrix(0.05,0,0,0.05,50.95,0)" xlink:href="#D"/></g><g id="h"><use transform="matrix(0.05,0,0,0.05,0,0)" xlink:href="#G"/><use transform="matrix(0.05,0,0,0.05,12,0)" xlink:href="#P"/><use transform="matrix(0.05,0,0,0.05,22,0)" xlink:href="#J"/><use transform="matrix(0.05,0,0,0.05,27,0)" xlink:href="#Q"/><use transform="matrix(0.05,0,0,0.05,32.95,0)" xlink:href="#B"/><use transform="matrix(0.05,0,0,0.05,42.95,0)" xlink:href="#R"/><use transform="matrix(0.05,0,0,0.05,52.95,0)" xlink:href="#D"/></g><path fill="#333" d="M118-107v75H92v-75H18v-26h74v-75h26v75h74v26h-74" id="S"/><use transform="matrix(0.05,0,0,0.05,0,0)" xlink:href="#S" id="i"/><path fill="#333" d="M30 0v-248h33v221h125V0H30" id="T"/><path fill="#333" d="M24-231v-30h32v30H24zM-9 49c24 4 33-6 33-30v-209h32V24c2 40-23 58-65 49V49" id="U"/><g id="j"><use transform="matrix(0.05,0,0,0.05,0,0)" xlink:href="#T"/><use transform="matrix(0.05,0,0,0.05,10,0)" xlink:href="#I"/><use transform="matrix(0.05,0,0,0.05,20,0)" xlink:href="#U"/><use transform="matrix(0.05,0,0,0.05,23.95,0)" xlink:href="#D"/></g><path fill="#333" d="M9 0v-24l116-142H16v-24h144v24L44-24h123V0H9" id="V"/><path fill="#333" d="M212-179c-10-28-35-45-73-45-59 0-87 40-87 99 0 60 29 101 89 101 43 0 62-24 78-52l27 14C228-24 195 4 139 4 59 4 22-46 18-125c-6-104 99-153 187-111 19 9 31 26 39 46" id="W"/><path fill="#333" d="M115-194c55 1 70 41 70 98S169 2 115 4C84 4 66-9 55-30l1 105H24l-1-265h31l2 30c10-21 28-34 59-34zm-8 174c40 0 45-34 45-75s-6-73-45-74c-42 0-51 32-51 76 0 43 10 73 51 73" id="X"/><path fill="#333" d="M87 75C49 33 22-17 22-94c0-76 28-126 65-167h31c-38 41-64 92-64 168S80 34 118 75H87" id="Y"/><path fill="#333" d="M185-189c-5-48-123-54-124 2 14 75 158 14 163 119 3 78-121 87-175 55-17-10-28-26-33-46l33-7c5 56 141 63 141-1 0-78-155-14-162-118-5-82 145-84 179-34 5 7 8 16 11 25" id="Z"/><g id="k"><use transform="matrix(0.05,0,0,0.05,0,0)" xlink:href="#Q"/><use transform="matrix(0.05,0,0,0.05,5.95,0)" xlink:href="#B"/><use transform="matrix(0.05,0,0,0.05,15.949999999999998,0)" xlink:href="#D"/><use transform="matrix(0.05,0,0,0.05,25.950000000000003,0)" xlink:href="#F"/><use transform="matrix(0.05,0,0,0.05,29.899999999999995,0)" xlink:href="#E"/><use transform="matrix(0.05,0,0,0.05,33.85,0)" xlink:href="#V"/><use transform="matrix(0.05,0,0,0.05,42.85,0)" xlink:href="#D"/><use transform="matrix(0.05,0,0,0.05,52.85,0)" xlink:href="#Q"/><use transform="matrix(0.05,0,0,0.05,58.800000000000004,0)" xlink:href="#W"/><use transform="matrix(0.05,0,0,0.05,71.75,0)" xlink:href="#I"/><use transform="matrix(0.05,0,0,0.05,81.75,0)" xlink:href="#C"/><use transform="matrix(0.05,0,0,0.05,96.7,0)" xlink:href="#X"/><use transform="matrix(0.05,0,0,0.05,106.7,0)" xlink:href="#Q"/><use transform="matrix(0.05,0,0,0.05,112.65,0)" xlink:href="#D"/><use transform="matrix(0.05,0,0,0.05,122.65,0)" xlink:href="#Y"/><use transform="matrix(0.05,0,0,0.05,128.6,0)" xlink:href="#Z"/><use transform="matrix(0.05,0,0,0.05,140.6,0)" xlink:href="#J"/><use transform="matrix(0.05,0,0,0.05,145.6,0)" xlink:href="#Q"/><use transform="matrix(0.05,0,0,0.05,151.54999999999998,0)" xlink:href="#E"/><use transform="matrix(0.05,0,0,0.05,155.49999999999997,0)" xlink:href="#P"/><use transform="matrix(0.05,0,0,0.05,165.49999999999997,0)" xlink:href="#R"/></g><path fill="#333" d="M85-194c31 0 48 13 60 33l-1-100h32l1 261h-30c-2-10 0-23-3-31C134-8 116 4 85 4 32 4 16-35 15-94c0-66 23-100 70-100zm9 24c-40 0-46 34-46 75 0 40 6 74 45 74 42 0 51-32 51-76 0-42-9-74-50-73" id="aa"/><path fill="#333" d="M33-261c38 41 65 92 65 168S71 34 33 75H2C39 34 66-17 66-93S39-220 2-261h31" id="ab"/><g id="l"><use transform="matrix(0.05,0,0,0.05,0,0)" xlink:href="#X"/><use transform="matrix(0.05,0,0,0.05,10,0)" xlink:href="#Q"/><use transform="matrix(0.05,0,0,0.05,15.949999999999998,0)" xlink:href="#I"/><use transform="matrix(0.05,0,0,0.05,25.950000000000003,0)" xlink:href="#aa"/><use transform="matrix(0.05,0,0,0.05,35.95,0)" xlink:href="#O"/><use transform="matrix(0.05,0,0,0.05,45.95,0)" xlink:href="#J"/><use transform="matrix(0.05,0,0,0.05,50.95,0)" xlink:href="#I"/><use transform="matrix(0.05,0,0,0.05,60.95,0)" xlink:href="#ab"/></g><path fill="#333" d="M24 0v-248h195v40H76v63h132v40H76v65h150V0H24" id="ac"/><path fill="#333" d="M137-138c1-29-70-34-71-4 15 46 118 7 119 86 1 83-164 76-172 9l43-7c4 19 20 25 44 25 33 8 57-30 24-41C81-84 22-81 20-136c-2-80 154-74 161-7" id="ad"/><path fill="#333" d="M115-3C79 11 28 4 28-45v-112H4v-33h27l15-45h31v45h36v33H77v99c-1 23 16 31 38 25v30" id="ae"/><path fill="#333" d="M84 4C32 4 15-41 15-95c0-55 18-99 73-99 29 0 47 12 58 34l2-30h48l-1 265h-49V-32C136-9 114 4 84 4zm21-34c32 0 41-29 41-66 0-36-9-64-40-64-33 0-39 30-40 65 0 43 13 65 39 65" id="af"/><path fill="#333" d="M85 4C-2 5 27-109 22-190h50c7 57-23 150 33 157 60-5 35-97 40-157h50l1 190h-47c-2-12 1-28-3-38-12 25-28 42-61 42" id="ag"/><path fill="#333" d="M185-48c-13 30-37 53-82 52C43 2 14-33 14-96s30-98 90-98c62 0 83 45 84 108H66c0 31 8 55 39 56 18 0 30-7 34-22zm-45-69c5-46-57-63-70-21-2 6-4 13-4 21h74" id="ah"/><g id="m"><use transform="matrix(0.05,0,0,0.05,0,0)" xlink:href="#ac"/><use transform="matrix(0.05,0,0,0.05,12,0)" xlink:href="#ad"/><use transform="matrix(0.05,0,0,0.05,22,0)" xlink:href="#ae"/><use transform="matrix(0.05,0,0,0.05,27.950000000000003,0)" xlink:href="#x"/><use transform="matrix(0.05,0,0,0.05,38.9,0)" xlink:href="#af"/><use transform="matrix(0.05,0,0,0.05,49.85,0)" xlink:href="#ag"/><use transform="matrix(0.05,0,0,0.05,60.800000000000004,0)" xlink:href="#ah"/></g><path fill="#333" d="M593-100v-404H195v-159h398v-403h169v403h398v159H762v404H593" id="ai"/><use transform="matrix(0.008173828125000001,0,0,0.008173828125000001,0,0)" xlink:href="#ai" id="n"/><path fill="#333" d="M471 26C259 26 90-98 90-318c0-256 228-303 435-329 202-27 287-16 287-108 0-139-79-219-234-219-161 0-248 86-283 164l-173-57c86-203 278-265 451-265 150 0 419 46 419 395V0H815v-152h-12C765-73 660 26 471 26zm31-159c199 0 310-134 310-271v-155c-30 35-226 55-295 64-131 17-246 59-246 186 0 116 97 176 231 176" id="aj"/><path fill="#333" d="M598-1118v154H368v674c0 100 37 144 132 144 23 0 62-6 92-12L629-6c-37 13-88 20-134 20-193 0-307-107-307-290v-688H20v-154h168v-266h180v266h230" id="ak"/><path fill="#333" d="M537 14c-226 0-379-139-379-422v-710h180v695c0 172 97 275 253 275 160 0 281-109 281-300v-670h181V0H879v-209C806-46 684 14 537 14" id="al"/><path fill="#333" d="M338-1490V0H158v-1490h180" id="am"/><path fill="#333" d="M158 0v-1118h180V0H158zm91-1301c-68 0-125-53-125-119s57-119 125-119c69 0 126 53 126 119s-57 119-126 119" id="an"/><path fill="#333" d="M126 0v-134l627-806v-11H146v-167h839v143L376-178v11h629V0H126" id="ao"/><path fill="#333" d="M158 0v-1118h174v172h12c41-113 157-188 290-188 26 0 70 2 91 3v181c-11-2-60-10-108-10-161 0-279 109-279 260V0H158" id="ap"/><path fill="#333" d="M180 0v-1490h908v168H370v486h669v168H370v500h727V0H180" id="aq"/><path fill="#333" d="M538 24C308 24 148-78 108-271l171-41c32 123 123 178 257 178 156 0 256-77 256-169 0-77-54-128-164-154l-186-44c-203-48-300-148-300-305 0-192 176-326 414-326 230 0 351 112 402 269l-163 42c-31-80-94-158-238-158-133 0-233 69-233 162 0 83 57 129 188 160l169 40c203 48 298 149 298 302 0 196-179 339-441 339" id="ar"/><path fill="#333" d="M613 24c-304 0-509-231-509-576 0-350 205-580 509-580 305 0 511 230 511 580 0 345-206 576-511 576zm0-161c226 0 329-195 329-415 0-222-103-419-329-419-223 0-326 196-326 419 0 220 103 415 326 415" id="as"/><path fill="#333" d="M1096 418H916v-591h-14C865-111 790 24 577 24c-279 0-473-224-473-580 0-354 195-576 474-576 218 0 287 134 324 193h20v-179h174V418zM604-137c203 0 314-172 314-421 0-247-108-413-314-413-212 0-317 181-317 413 0 235 108 421 317 421" id="at"/><path fill="#333" d="M628 24c-324 0-524-230-524-574 0-343 198-582 503-582 237 0 487 146 487 559v75H286c9 234 145 362 343 362 132 0 231-58 273-172l174 48C1024-91 857 24 628 24zM287-650h624c-17-190-120-322-304-322-192 0-309 151-320 322" id="au"/><path fill="#333" d="M218-607c0-325 108-727 258-974h175c-155 315-250 682-250 974 0 265 78 531 250 886H476C306-10 218-315 218-607" id="av"/><path fill="#333" d="M657 26c-323 0-524-166-541-416h195c15 169 171 246 346 246 202 0 356-106 356-265 5-203-294-238-475-293-239-73-380-191-380-389 0-252 224-419 512-419 294 0 499 171 508 396H992c-17-145-151-228-328-228-193 0-321 102-321 242 0 156 175 211 284 241l149 41c160 44 422 134 422 412 0 244-197 432-541 432" id="aw"/><path fill="#333" d="M338-670V0H158v-1118h173l1 207c72-158 192-221 342-221 226 0 378 139 378 422V0H872v-695c0-172-96-275-252-275-161 0-282 109-282 300" id="ax"/><path fill="#333" d="M611 442c-248 0-391-105-460-228l146-94c47 65 117 165 314 165 178 0 307-82 307-266v-224h-17C863-141 792-18 576-18c-268 0-472-195-472-546 0-346 197-568 476-568 216 0 288 133 326 193h17v-179h175V29c0 289-215 413-487 413zm-5-620c203 0 314-146 314-390 0-237-108-403-314-403-213 0-319 180-319 403 0 230 109 390 319 390" id="ay"/><g id="o"><use transform="matrix(0.008173828125000001,0,0,0.008173828125000001,0,0)" xlink:href="#aj"/><use transform="matrix(0.008173828125000001,0,0,0.008173828125000001,9.399902343750002,0)" xlink:href="#ak"/><use transform="matrix(0.008173828125000001,0,0,0.008173828125000001,14.876367187500001,0)" xlink:href="#al"/><use transform="matrix(0.008173828125000001,0,0,0.008173828125000001,24.774873046875005,0)" xlink:href="#aj"/><use transform="matrix(0.008173828125000001,0,0,0.008173828125000001,34.174775390625,0)" xlink:href="#am"/><use transform="matrix(0.008173828125000001,0,0,0.008173828125000001,38.228994140625005,0)" xlink:href="#an"/><use transform="matrix(0.008173828125000001,0,0,0.008173828125000001,42.28321289062501,0)" xlink:href="#ao"/><use transform="matrix(0.008173828125000001,0,0,0.008173828125000001,51.52781250000001,0)" xlink:href="#aj"/><use transform="matrix(0.008173828125000001,0,0,0.008173828125000001,60.92771484375001,0)" xlink:href="#ap"/><use transform="matrix(0.008173828125000001,0,0,0.008173828125000001,67.49129882812501,0)" xlink:href="#aq"/><use transform="matrix(0.008173828125000001,0,0,0.008173828125000001,77.55328125000001,0)" xlink:href="#ar"/><use transform="matrix(0.008173828125000001,0,0,0.008173828125000001,86.38918945312501,0)" xlink:href="#ak"/><use transform="matrix(0.008173828125000001,0,0,0.008173828125000001,91.70217773437501,0)" xlink:href="#as"/><use transform="matrix(0.008173828125000001,0,0,0.008173828125000001,101.73963867187501,0)" xlink:href="#at"/><use transform="matrix(0.008173828125000001,0,0,0.008173828125000001,111.98961914062501,0)" xlink:href="#al"/><use transform="matrix(0.008173828125000001,0,0,0.008173828125000001,121.88812500000002,0)" xlink:href="#au"/><use transform="matrix(0.008173828125000001,0,0,0.008173828125000001,131.64767578125003,0)" xlink:href="#av"/><use transform="matrix(0.008173828125000001,0,0,0.008173828125000001,137.75352539062504,0)" xlink:href="#aw"/><use transform="matrix(0.008173828125000001,0,0,0.008173828125000001,148.49393554687504,0)" xlink:href="#ak"/><use transform="matrix(0.008173828125000001,0,0,0.008173828125000001,153.97040039062503,0)" xlink:href="#ap"/><use transform="matrix(0.008173828125000001,0,0,0.008173828125000001,160.53398437500002,0)" xlink:href="#an"/><use transform="matrix(0.008173828125000001,0,0,0.008173828125000001,164.588203125,0)" xlink:href="#ax"/><use transform="matrix(0.008173828125000001,0,0,0.008173828125000001,174.47853515625002,0)" xlink:href="#ay"/></g><path fill="#333" d="M158 418v-1536h174v179h20c37-59 106-193 324-193 279 0 474 222 474 576 0 356-194 580-473 580-213 0-288-135-325-197h-14v591H158zm492-555c209 0 317-186 317-421 0-232-105-413-317-413-206 0-314 166-314 413 0 249 111 421 314 421" id="az"/><path fill="#333" d="M577 24c-279 0-473-224-473-580 0-354 195-576 474-576 218 0 287 134 324 193h14v-551h180V0H922v-173h-20C865-111 790 24 577 24zm27-161c203 0 314-172 314-421 0-247-108-413-314-413-212 0-317 181-317 413 0 235 108 421 317 421" id="aA"/><path fill="#333" d="M96 279C273-86 346-350 346-607c0-292-95-659-250-974h175c150 246 258 650 258 974 0 297-91 602-258 886H96" id="aB"/><g id="p"><use transform="matrix(0.008173828125000001,0,0,0.008173828125000001,0,0)" xlink:href="#az"/><use transform="matrix(0.008173828125000001,0,0,0.008173828125000001,10.249980468750001,0)" xlink:href="#ap"/><use transform="matrix(0.008173828125000001,0,0,0.008173828125000001,16.274091796875002,0)" xlink:href="#as"/><use transform="matrix(0.008173828125000001,0,0,0.008173828125000001,26.311552734375002,0)" xlink:href="#aA"/><use transform="matrix(0.008173828125000001,0,0,0.008173828125000001,36.561533203125,0)" xlink:href="#al"/><use transform="matrix(0.008173828125000001,0,0,0.008173828125000001,46.460039062499995,0)" xlink:href="#ak"/><use transform="matrix(0.008173828125000001,0,0,0.008173828125000001,51.77302734375,0)" xlink:href="#as"/><use transform="matrix(0.008173828125000001,0,0,0.008173828125000001,61.622490234375,0)" xlink:href="#aB"/></g><path fill="#333" d="M156-25L96-89v-11l60-65h29v5l-59 66 60 64v5h-30zm-82 0L15-89v-11l59-65h29v5L44-94l59 64v5H74" id="aC"/><path fill="#333" d="M126-25H97v-5l59-64-59-66v-5h29l60 65v11zm-82 0H15v-5l59-64-59-66v-5h29l59 65v11" id="aD"/><g id="q"><use transform="matrix(0.04018518518518519,0,0,0.04018518518518519,0,0)" xlink:href="#aC"/><use transform="matrix(0.04018518518518519,0,0,0.04018518518518519,8.037037037037038,0)" xlink:href="#O"/><use transform="matrix(0.04018518518518519,0,0,0.04018518518518519,16.074074074074076,0)" xlink:href="#M"/><use transform="matrix(0.04018518518518519,0,0,0.04018518518518519,23.30740740740741,0)" xlink:href="#D"/><use transform="matrix(0.04018518518518519,0,0,0.04018518518518519,31.34444444444445,0)" xlink:href="#Q"/><use transform="matrix(0.04018518518518519,0,0,0.04018518518518519,36.126481481481484,0)" xlink:href="#aD"/></g><path d="M101-251c68 0 85 55 85 127S166 4 100 4C33 4 14-52 14-124c0-73 17-127 87-127zm-1 229c47 0 54-49 54-102s-4-102-53-102c-51 0-55 48-55 102 0 53 5 102 54 102" id="aE"/><path d="M33 0v-38h34V0H33" id="aF"/><path d="M80-196l47-18 7 23-49 13 32 44-20 13-27-46-27 45-21-12 33-44-49-13 8-23 47 19-2-53h23" id="aG"/><g id="r"><use transform="matrix(0.05,0,0,0.05,0,0)" xlink:href="#aE"/><use transform="matrix(0.05,0,0,0.05,10,0)" xlink:href="#aF"/><use transform="matrix(0.05,0,0,0.05,15,0)" xlink:href="#aF"/><use transform="matrix(0.05,0,0,0.05,20,0)" xlink:href="#aG"/></g><path fill="#333" d="M135-194c87-1 58 113 63 194h-50c-7-57 23-157-34-157-59 0-34 97-39 157H25l-1-190h47c2 12-1 28 3 38 12-26 28-41 61-42" id="aH"/><path fill="#333" d="M135-150c-39-12-60 13-60 57V0H25l-1-190h47c2 13-1 29 3 40 6-28 27-53 61-41v41" id="aI"/><path fill="#333" d="M195-6C206 82 75 100 31 46c-4-6-6-13-8-21l49-6c3 16 16 24 34 25 40 0 42-37 40-79-11 22-30 35-61 35-53 0-70-43-70-97 0-56 18-96 73-97 30 0 46 14 59 34l2-30h47zm-90-29c32 0 41-27 41-63 0-35-9-62-40-62-32 0-39 29-40 63 0 36 9 62 39 62" id="aJ"/><g id="s"><use transform="matrix(0.05,0,0,0.05,0,0)" xlink:href="#ac"/><use transform="matrix(0.05,0,0,0.05,12,0)" xlink:href="#aH"/><use transform="matrix(0.05,0,0,0.05,22.950000000000003,0)" xlink:href="#ae"/><use transform="matrix(0.05,0,0,0.05,28.900000000000002,0)" xlink:href="#aI"/><use transform="matrix(0.05,0,0,0.05,35.900000000000006,0)" xlink:href="#ah"/><use transform="matrix(0.05,0,0,0.05,45.900000000000006,0)" xlink:href="#aJ"/><use transform="matrix(0.05,0,0,0.05,56.85,0)" xlink:href="#z"/></g><g id="t"><use transform="matrix(0.008173828125000001,0,0,0.008173828125000001,0,0)" xlink:href="#az"/><use transform="matrix(0.008173828125000001,0,0,0.008173828125000001,10.249980468750001,0)" xlink:href="#ap"/><use transform="matrix(0.008173828125000001,0,0,0.008173828125000001,16.274091796875002,0)" xlink:href="#au"/><use transform="matrix(0.008173828125000001,0,0,0.008173828125000001,26.033642578125004,0)" xlink:href="#az"/><use transform="matrix(0.008173828125000001,0,0,0.008173828125000001,36.44709960937501,0)" xlink:href="#aj"/><use transform="matrix(0.008173828125000001,0,0,0.008173828125000001,45.84700195312501,0)" xlink:href="#ap"/><use transform="matrix(0.008173828125000001,0,0,0.008173828125000001,52.149023437500006,0)" xlink:href="#aj"/><use transform="matrix(0.008173828125000001,0,0,0.008173828125000001,61.548925781250006,0)" xlink:href="#ap"/><use transform="matrix(0.008173828125000001,0,0,0.008173828125000001,68.112509765625,0)" xlink:href="#aq"/><use transform="matrix(0.008173828125000001,0,0,0.008173828125000001,78.17449218750001,0)" xlink:href="#ax"/><use transform="matrix(0.008173828125000001,0,0,0.008173828125000001,88.06482421875,0)" xlink:href="#ak"/><use transform="matrix(0.008173828125000001,0,0,0.008173828125000001,93.5412890625,0)" xlink:href="#ap"/><use transform="matrix(0.008173828125000001,0,0,0.008173828125000001,99.565400390625,0)" xlink:href="#au"/><use transform="matrix(0.008173828125000001,0,0,0.008173828125000001,109.324951171875,0)" xlink:href="#ay"/><use transform="matrix(0.008173828125000001,0,0,0.008173828125000001,119.591279296875,0)" xlink:href="#aj"/><use transform="matrix(0.008173828125000001,0,0,0.008173828125000001,128.991181640625,0)" xlink:href="#av"/><use transform="matrix(0.008173828125000001,0,0,0.008173828125000001,135.09703125000001,0)" xlink:href="#aw"/><use transform="matrix(0.008173828125000001,0,0,0.008173828125000001,145.83744140625,0)" xlink:href="#ak"/><use transform="matrix(0.008173828125000001,0,0,0.008173828125000001,151.31390625,0)" xlink:href="#ap"/><use transform="matrix(0.008173828125000001,0,0,0.008173828125000001,157.877490234375,0)" xlink:href="#an"/><use transform="matrix(0.008173828125000001,0,0,0.008173828125000001,161.93170898437498,0)" xlink:href="#ax"/><use transform="matrix(0.008173828125000001,0,0,0.008173828125000001,171.822041015625,0)" xlink:href="#ay"/></g><path fill="#333" d="M220-157c-53 9-28 100-34 157h-49v-107c1-27-5-49-29-50C55-147 81-57 75 0H25l-1-190h47c2 12-1 28 3 38 10-53 101-56 108 0 13-22 24-43 59-42 82 1 51 116 57 194h-49v-107c-1-25-5-48-29-50" id="aK"/><path fill="#333" d="M25-224v-37h50v37H25zM25 0v-190h50V0H25" id="aL"/><path fill="#333" d="M25 0v-261h50V0H25" id="aM"/><path fill="#333" d="M175 0L67-191c6 58 2 128 3 191H24v-248h59L193-55c-6-58-2-129-3-193h46V0h-61" id="aN"/><path fill="#333" d="M121-226c-27-7-43 5-38 36h38v33H83V0H34v-157H6v-33h28c-9-59 32-81 87-68v32" id="aO"/><path fill="#333" d="M190-63c-7 42-38 67-86 67-59 0-84-38-90-98-12-110 154-137 174-36l-49 2c-2-19-15-32-35-32-30 0-35 28-38 64-6 74 65 87 74 30" id="aP"/><g id="u"><use transform="matrix(0.05,0,0,0.05,0,0)" xlink:href="#ac"/><use transform="matrix(0.05,0,0,0.05,12,0)" xlink:href="#aK"/><use transform="matrix(0.05,0,0,0.05,28,0)" xlink:href="#z"/><use transform="matrix(0.05,0,0,0.05,38,0)" xlink:href="#aL"/><use transform="matrix(0.05,0,0,0.05,43,0)" xlink:href="#aM"/><use transform="matrix(0.05,0,0,0.05,48,0)" xlink:href="#aN"/><use transform="matrix(0.05,0,0,0.05,60.95,0)" xlink:href="#x"/><use transform="matrix(0.05,0,0,0.05,71.9,0)" xlink:href="#ae"/><use transform="matrix(0.05,0,0,0.05,77.85000000000001,0)" xlink:href="#aL"/><use transform="matrix(0.05,0,0,0.05,82.85000000000001,0)" xlink:href="#aO"/><use transform="matrix(0.05,0,0,0.05,88.80000000000001,0)" xlink:href="#aL"/><use transform="matrix(0.05,0,0,0.05,93.80000000000001,0)" xlink:href="#aP"/><use transform="matrix(0.05,0,0,0.05,103.80000000000001,0)" xlink:href="#z"/><use transform="matrix(0.05,0,0,0.05,113.80000000000001,0)" xlink:href="#aP"/><use transform="matrix(0.05,0,0,0.05,123.80000000000001,0)" xlink:href="#z"/><use transform="matrix(0.05,0,0,0.05,133.8,0)" xlink:href="#x"/></g><path fill="#333" d="M481 0L54-1118h197c107 314 236 620 325 951 87-331 217-637 324-951h197L670 0H481" id="aQ"/><path fill="#333" d="M158 0v-1118h175l1 205c55-151 181-225 313-225 147 0 245 90 285 228 53-141 190-228 352-228 194 0 352 125 352 384V0h-181v-749c0-161-105-225-225-225-151 0-243 103-243 244V0H807v-767c0-124-93-207-219-207-131 0-250 92-250 270V0H158" id="aR"/><g id="v"><use transform="matrix(0.008173828125000001,0,0,0.008173828125000001,0,0)" xlink:href="#au"/><use transform="matrix(0.008173828125000001,0,0,0.008173828125000001,9.75955078125,0)" xlink:href="#ax"/><use transform="matrix(0.008173828125000001,0,0,0.008173828125000001,19.40466796875,0)" xlink:href="#aQ"/><use transform="matrix(0.008173828125000001,0,0,0.008173828125000001,28.812744140625,0)" xlink:href="#an"/><use transform="matrix(0.008173828125000001,0,0,0.008173828125000001,32.866962890625004,0)" xlink:href="#aj"/><use transform="matrix(0.008173828125000001,0,0,0.008173828125000001,42.266865234375004,0)" xlink:href="#ap"/><use transform="matrix(0.008173828125000001,0,0,0.008173828125000001,48.830449218750005,0)" xlink:href="#aq"/><use transform="matrix(0.008173828125000001,0,0,0.008173828125000001,58.892431640625006,0)" xlink:href="#aR"/><use transform="matrix(0.008173828125000001,0,0,0.008173828125000001,73.556279296875,0)" xlink:href="#aj"/><use transform="matrix(0.008173828125000001,0,0,0.008173828125000001,82.956181640625,0)" xlink:href="#an"/><use transform="matrix(0.008173828125000001,0,0,0.008173828125000001,87.01040039062501,0)" xlink:href="#am"/><use transform="matrix(0.008173828125000001,0,0,0.008173828125000001,91.06461914062501,0)" xlink:href="#av"/><use transform="matrix(0.008173828125000001,0,0,0.008173828125000001,97.17046875000001,0)" xlink:href="#aw"/><use transform="matrix(0.008173828125000001,0,0,0.008173828125000001,107.91087890625002,0)" xlink:href="#ak"/><use transform="matrix(0.008173828125000001,0,0,0.008173828125000001,113.38734375000001,0)" xlink:href="#ap"/><use transform="matrix(0.008173828125000001,0,0,0.008173828125000001,119.95092773437501,0)" xlink:href="#an"/><use transform="matrix(0.008173828125000001,0,0,0.008173828125000001,124.00514648437502,0)" xlink:href="#ax"/><use transform="matrix(0.008173828125000001,0,0,0.008173828125000001,133.89547851562503,0)" xlink:href="#ay"/></g></defs></g></svg>